<svg width="18" height="11" viewBox="0 0 18 11" fill="none" xmlns="http://www.w3.org/2000/svg">
<path fill-rule="evenodd" clip-rule="evenodd" d="M7.51493e-07 1.47251C-0.000352566 1.11675 0.12389 0.772909 0.349716 0.504679C0.575542 0.236449 0.887649 0.0620031 1.22823 0.0136523C1.56881 -0.0346984 1.91478 0.0463226 2.20206 0.241708C2.48934 0.437094 2.69847 0.733604 2.7907 1.07632C4.63569 7.45257 13.3641 7.45355 15.2129 1.08122C15.2648 0.894854 15.3519 0.720959 15.469 0.569546C15.5862 0.418133 15.7311 0.292192 15.8955 0.198972C16.0598 0.105752 16.2404 0.0470932 16.4267 0.0263724C16.6131 0.00565165 16.8016 0.0232778 16.9813 0.0782365C17.1611 0.133195 17.3286 0.224401 17.4741 0.346605C17.6197 0.468808 17.7404 0.619597 17.8294 0.79029C17.9185 0.960984 17.974 1.14821 17.9928 1.3412C18.0116 1.53419 17.9934 1.72912 17.9391 1.91478C17.6153 3.05981 17.0943 4.13488 16.4012 5.0882L17.3109 6.02963C17.4466 6.16539 17.5548 6.32776 17.6292 6.50726C17.7036 6.68677 17.7427 6.87981 17.7443 7.07513C17.7458 7.27044 17.7098 7.46412 17.6382 7.64487C17.5667 7.82561 17.4611 7.9898 17.3275 8.12785C17.194 8.2659 17.0353 8.37504 16.8605 8.44892C16.6858 8.5228 16.4986 8.55993 16.3099 8.55814C16.1212 8.55635 15.9347 8.51568 15.7613 8.4385C15.5879 8.36133 15.4311 8.24919 15.3001 8.10863L14.343 7.11816C13.8455 7.4708 13.3154 7.77138 12.7605 8.01547L12.9907 8.90394C13.0781 9.27715 13.021 9.67091 12.8315 10.0011C12.6421 10.3313 12.3355 10.5718 11.9771 10.6711C11.6186 10.7705 11.2369 10.7209 10.9133 10.5329C10.5898 10.3448 10.3501 10.0334 10.2455 9.66494L10.0077 8.74802C9.33961 8.81961 8.66491 8.81961 7.99685 8.74802L7.75995 9.66494C7.66244 10.0418 7.42425 10.3631 7.0978 10.5583C6.77135 10.7534 6.38336 10.8063 6.0192 10.7054C5.65503 10.6045 5.34452 10.358 5.15597 10.0202C4.96742 9.68233 4.91627 9.28081 5.01379 8.90394L5.24311 8.01449C4.68854 7.77065 4.15875 7.47041 3.66155 7.11816L2.70447 8.10863C2.57341 8.24919 2.41662 8.36133 2.24324 8.4385C2.06985 8.51568 1.88336 8.55635 1.69462 8.55814C1.50589 8.55993 1.3187 8.5228 1.14399 8.44892C0.969267 8.37504 0.810515 8.2659 0.676993 8.12785C0.54347 7.9898 0.437852 7.82561 0.3663 7.64487C0.294748 7.46412 0.258695 7.27044 0.260246 7.07513C0.261796 6.87981 0.300918 6.68677 0.37533 6.50726C0.449742 6.32776 0.557953 6.16539 0.693649 6.02963L1.60335 5.0882C0.911811 4.13644 0.391782 3.06343 0.0682284 1.92067C0.0232279 1.77583 0.000211648 1.62464 7.51493e-07 1.47251Z" fill="black"/>
</svg>
