<svg width="20" height="18" viewBox="0 0 20 18" fill="none" xmlns="http://www.w3.org/2000/svg">
<path d="M3.19577 7.70821L1 5.07055M7.37324 4.47238L6.47887 1M16.8042 7.70821L19 5.07224M12.6268 4.47238L13.5211 1M10 4.01109C4.10282 4.01109 1.62676 10.3746 1.62676 10.5064C1.62676 10.6382 4.10282 17 10 17C15.8972 17 18.3732 10.6382 18.3732 10.5064C18.3732 10.3746 15.8972 4.01109 10 4.01109Z" stroke="black" stroke-linecap="round" stroke-linejoin="round"/>
<path d="M7.61171 9.85176C7.53547 10.2296 7.52249 10.6218 7.57355 11.0056C7.62461 11.3895 7.73869 11.7574 7.90916 12.088C8.07963 12.4185 8.30311 12.7052 8.56664 12.9314C8.83017 13.1575 9.1285 13.3187 9.44434 13.4055C9.76017 13.4923 10.0872 13.503 10.4065 13.4369C10.7258 13.3709 11.0311 13.2295 11.3045 13.0209C11.5779 12.8123 11.814 12.5407 11.9993 12.2218C12.1845 11.9028 12.3151 11.5429 12.3835 11.163C12.4598 10.7852 12.4728 10.393 12.4217 10.0091C12.3706 9.62525 12.2566 9.25737 12.0861 8.92679C11.9156 8.59622 11.6921 8.30955 11.4286 8.08338C11.1651 7.85722 10.8668 7.69607 10.5509 7.60928C10.2351 7.5225 9.90803 7.5118 9.58873 7.57781C9.26942 7.64382 8.96421 7.78522 8.6908 7.99382C8.41739 8.20242 8.18122 8.47406 7.99598 8.79299C7.81075 9.11193 7.68013 9.47181 7.61171 9.85176Z" stroke="black" stroke-linecap="round" stroke-linejoin="round"/>
</svg>
