<svg width="128" height="128" viewBox="0 0 128 128" fill="none" xmlns="http://www.w3.org/2000/svg">
<g filter="url(#filter0_d_4_3779)">
<rect x="4" width="120" height="120" rx="60" fill="white" shape-rendering="crispEdges"/>
<path d="M113 60.2976C113 33.2359 91.0618 11.2976 64 11.2976C36.9382 11.2976 15 33.2359 15 60.2976C15 84.7548 32.9187 105.027 56.3438 108.702V74.4617H43.9023V60.2976H56.3438V49.5023C56.3438 37.2217 63.6593 30.4383 74.852 30.4383C80.2129 30.4383 85.8203 31.3953 85.8203 31.3953V43.4539H79.6417C73.5546 43.4539 71.6562 47.2311 71.6562 51.1063V60.2976H85.2461L83.0736 74.4617H71.6562V108.702C95.0813 105.027 113 84.7551 113 60.2976Z" fill="#1877F2"/>
</g>
<defs>
<filter id="filter0_d_4_3779" x="0" y="0" width="128" height="128" filterUnits="userSpaceOnUse" color-interpolation-filters="sRGB">
<feFlood flood-opacity="0" result="BackgroundImageFix"/>
<feColorMatrix in="SourceAlpha" type="matrix" values="0 0 0 0 0 0 0 0 0 0 0 0 0 0 0 0 0 0 127 0" result="hardAlpha"/>
<feOffset dy="4"/>
<feGaussianBlur stdDeviation="2"/>
<feComposite in2="hardAlpha" operator="out"/>
<feColorMatrix type="matrix" values="0 0 0 0 0 0 0 0 0 0 0 0 0 0 0 0 0 0 0.25 0"/>
<feBlend mode="normal" in2="BackgroundImageFix" result="effect1_dropShadow_4_3779"/>
<feBlend mode="normal" in="SourceGraphic" in2="effect1_dropShadow_4_3779" result="shape"/>
</filter>
</defs>
</svg>
