<svg width="25" height="26" viewBox="0 0 25 26" fill="none" xmlns="http://www.w3.org/2000/svg">
<path d="M23.6329 0.5L18.1405 2.0853L20.3642 0.59147C18.9603 0.906296 17.1867 1.52212 14.9575 2.51606L11.3192 6.28068L12.6105 3.65093C11.362 4.34014 10.0385 5.24367 8.76319 6.30196L7.91656 9.72144L7.73437 7.19007C6.47514 8.33876 5.29092 9.61508 4.31033 10.9605C3.2799 12.3698 2.47453 13.8589 2.07104 15.3426L0.564243 14.3428C0.699276 15.6032 1.1167 16.6987 1.80151 17.7038L0 17.156C0.409385 18.4058 1.07865 19.2141 2.21036 19.8682C1.57645 21.6391 1.27906 23.4898 0.959696 25.3351L1.94565 25.5C3.08914 14.1886 11.1584 6.97735 18.4512 3.78228L18.821 4.70655C12.2998 7.60487 7.23068 12.4974 4.57825 19.5491C5.54813 19.5545 6.49657 19.4375 7.37535 19.2141L7.63792 15.9754L8.33987 18.9269C8.92394 18.7142 9.45979 18.4589 9.93669 18.1611L8.82749 15.8478L10.5851 17.6985C11.0137 17.3581 11.3674 16.9752 11.6353 16.5551C13.2643 14.029 14.9683 11.5189 18.3226 9.41831L15.8738 8.5568L19.6301 8.66848C20.241 8.36003 20.884 7.98245 21.3716 7.62614L18.7084 7.41342L22.7112 6.47745C23.022 6.16901 23.3113 5.84461 23.5739 5.52021C24.5009 4.35344 25.1279 3.1388 24.9778 2.03425C24.9082 1.48171 24.5759 0.962136 24.0347 0.67124C23.9008 0.602106 23.7561 0.540949 23.6329 0.5Z" fill="#7A7A7A"/>
</svg>
