<svg width="30" height="87" viewBox="0 0 30 87" fill="none" xmlns="http://www.w3.org/2000/svg">
<rect width="30" height="87" fill="#153243"/>
<path d="M7 38.5H23M13 42.5V48.5M17 42.5V48.5M8 38.5L9 50.5C9 51.0304 9.21071 51.5391 9.58579 51.9142C9.96086 52.2893 10.4696 52.5 11 52.5H19C19.5304 52.5 20.0391 52.2893 20.4142 51.9142C20.7893 51.5391 21 51.0304 21 50.5L22 38.5M12 38.5V35.5C12 35.2348 12.1054 34.9804 12.2929 34.7929C12.4804 34.6054 12.7348 34.5 13 34.5H17C17.2652 34.5 17.5196 34.6054 17.7071 34.7929C17.8946 34.9804 18 35.2348 18 35.5V38.5" stroke="#F9FAF9" stroke-width="2" stroke-linecap="round" stroke-linejoin="round"/>
</svg>
