<svg width="622" height="183" viewBox="0 0 622 183" fill="none" xmlns="http://www.w3.org/2000/svg">
<rect x="38.5" y="0.5" width="94" height="94" rx="45" fill="#F9FAF9"/>
<rect x="38.5" y="0.5" width="94" height="94" rx="45" stroke="#ADADAD"/>
<path fill-rule="evenodd" clip-rule="evenodd" d="M78.0116 29.3003C77.857 28.7239 77.4798 28.2324 76.9629 27.9341C76.446 27.6358 75.8318 27.555 75.2553 27.7096C74.6789 27.8641 74.1874 28.2414 73.8891 28.7583C73.5908 29.2752 73.51 29.8894 73.6646 30.4658L74.2473 32.6393C74.4019 33.2158 74.7791 33.7072 75.296 34.0055C75.8129 34.3039 76.4271 34.3846 77.0036 34.2301C77.58 34.0755 78.0714 33.6983 78.3698 33.1814C78.6681 32.6645 78.7489 32.0503 78.5943 31.4738L78.0116 29.3003ZM68.4648 35.6656C68.1789 35.5876 67.8804 35.567 67.5864 35.6047C67.2925 35.6425 67.0089 35.7379 66.752 35.8856C66.495 36.0332 66.2698 36.2302 66.0892 36.4652C65.9085 36.7001 65.7761 36.9685 65.6995 37.2547C65.6229 37.541 65.6036 37.8396 65.6427 38.1334C65.6819 38.4272 65.7786 38.7103 65.9275 38.9665C66.0763 39.2228 66.2744 39.4471 66.5102 39.6266C66.746 39.8062 67.0149 39.9373 67.3016 40.0126L69.4751 40.5953C70.0505 40.7464 70.6623 40.6635 71.1767 40.3647C71.6911 40.0659 72.0663 39.5755 72.2201 39.0008C72.3739 38.4261 72.2938 37.8138 71.9974 37.298C71.7009 36.7822 71.2123 36.4048 70.6383 36.2483L68.4648 35.6656ZM88.2963 34.3853C88.5052 34.1763 88.6709 33.9281 88.7839 33.6551C88.8969 33.382 88.955 33.0893 88.9549 32.7938C88.9548 32.4983 88.8965 32.2056 88.7833 31.9326C88.6701 31.6596 88.5042 31.4116 88.2952 31.2027C88.0861 30.9938 87.838 30.8281 87.5649 30.7151C87.2918 30.6021 86.9992 30.544 86.7036 30.5441C86.4081 30.5442 86.1155 30.6025 85.8425 30.7157C85.5695 30.8289 85.3215 30.9948 85.1126 31.2038L83.5218 32.7946C83.3128 33.0036 83.1469 33.2518 83.0338 33.5249C82.9207 33.7981 82.8624 34.0908 82.8624 34.3865C82.8624 34.6821 82.9207 34.9748 83.0338 35.248C83.1469 35.5211 83.3128 35.7693 83.5218 35.9783C83.7309 36.1874 83.979 36.3532 84.2522 36.4663C84.5253 36.5795 84.818 36.6377 85.1137 36.6377C85.4093 36.6377 85.7021 36.5795 85.9752 36.4663C86.2483 36.3532 86.4965 36.1874 86.7056 35.9783L88.2963 34.3853ZM72.3866 50.2973L73.9773 48.7066C74.3998 48.2847 74.6374 47.7122 74.6378 47.1152C74.6382 46.5181 74.4015 45.9453 73.9796 45.5228C73.5577 45.1003 72.9852 44.8628 72.3881 44.8623C71.7911 44.8619 71.2183 45.0987 70.7958 45.5206L69.2028 47.1113C68.7806 47.5335 68.5434 48.1061 68.5434 48.7032C68.5434 49.3003 68.7806 49.8729 69.2028 50.2951C69.625 50.7173 70.1976 50.9545 70.7947 50.9545C71.3918 50.9545 71.9644 50.7173 72.3866 50.2951M79.5866 38.6603C79.1777 38.4967 78.7297 38.4566 78.2983 38.5451C77.8669 38.6336 77.4709 38.8468 77.1594 39.1582C76.848 39.4696 76.6348 39.8656 76.5463 40.2971C76.4578 40.7285 76.4979 41.1764 76.6616 41.5853L85.6616 64.0853C85.8228 64.488 86.097 64.8355 86.4512 65.086C86.8054 65.3364 87.2244 65.4792 87.6578 65.497C88.0912 65.5148 88.5206 65.407 88.8941 65.1865C89.2677 64.966 89.5695 64.6422 89.7633 64.2541L92.8683 58.0463L99.6588 64.8413C99.8679 65.0502 100.116 65.2159 100.389 65.3289C100.662 65.4419 100.955 65.5 101.25 65.4999C101.546 65.4998 101.839 65.4415 102.112 65.3283C102.385 65.2151 102.633 65.0493 102.841 64.8402C103.05 64.6312 103.216 64.383 103.329 64.1099C103.442 63.8369 103.5 63.5442 103.5 63.2487C103.5 62.9531 103.442 62.6605 103.328 62.3875C103.215 62.1145 103.049 61.8665 102.84 61.6576L96.0476 54.8626L102.258 51.7598C102.645 51.5656 102.968 51.2636 103.188 50.8902C103.408 50.5167 103.515 50.0878 103.497 49.6548C103.479 49.2219 103.336 48.8033 103.086 48.4495C102.836 48.0957 102.489 47.8217 102.087 47.6603L79.5866 38.6603Z" fill="#7A7A7A"/>
<path d="M18.5488 124.786L18.8564 124.813C19.1344 124.836 19.2734 124.939 19.2734 125.121C19.2734 125.395 19.1253 126.682 18.8291 128.983C18.8063 129.143 18.5807 129.364 18.1523 129.646C17.7285 129.924 17.1953 130.205 16.5527 130.487C14.9577 131.185 13.3171 131.533 11.6309 131.533C9.88086 131.533 8.25846 131.182 6.76367 130.48C5.26888 129.774 4.0612 128.687 3.14062 127.22C2.19271 125.711 1.71875 123.845 1.71875 121.621C1.71875 118.135 3.07682 115.464 5.79297 113.609C7.48372 112.452 9.48665 111.873 11.8018 111.873C13.8161 111.873 15.6755 112.488 17.3799 113.719C17.5531 113.846 17.6624 113.928 17.708 113.965C17.7581 114.001 17.806 114.031 17.8516 114.054C17.9017 114.072 17.9359 114.07 17.9541 114.047C17.9769 114.02 17.9883 113.967 17.9883 113.89V113.138C17.9883 112.96 18.0179 112.841 18.0771 112.782C18.141 112.718 18.2822 112.687 18.501 112.687C18.7243 112.687 18.8861 112.716 18.9863 112.775C19.0866 112.835 19.1367 112.955 19.1367 113.138L19.0205 118.682C19.0205 118.855 18.984 118.964 18.9111 119.01C18.8428 119.051 18.6901 119.071 18.4531 119.071C18.2207 119.071 18.0658 119.049 17.9883 119.003C17.9108 118.953 17.8721 118.855 17.8721 118.709L17.9883 116.132C17.9883 115.922 17.6898 115.578 17.0928 115.1C16.5003 114.621 15.9557 114.234 15.459 113.938C14.2695 113.236 12.9844 112.885 11.6035 112.885C9.21094 112.885 7.34473 114.056 6.00488 116.398C5.16178 117.875 4.74023 119.634 4.74023 121.676C4.74023 122.833 4.94076 123.941 5.3418 124.998C5.7474 126.055 6.29199 126.971 6.97559 127.746C7.65918 128.516 8.47493 129.132 9.42285 129.592C10.3753 130.048 11.2594 130.275 12.0752 130.275C12.891 130.275 13.5882 130.221 14.167 130.111C14.7503 130.002 15.2493 129.868 15.6641 129.708C16.0788 129.549 16.4525 129.382 16.7852 129.209C17.4414 128.858 17.7764 128.605 17.79 128.45L18.1523 125.203C18.1979 124.925 18.3301 124.786 18.5488 124.786ZM24.8311 131.082L21.9463 131.137C21.7412 131.137 21.6387 130.984 21.6387 130.679C21.6387 130.369 21.7503 130.214 21.9736 130.214H23.6006C23.6553 129.972 23.6826 128.658 23.6826 126.27V124.533C23.6826 122.218 23.6553 120.892 23.6006 120.555H22.1172C21.944 120.555 21.8255 120.516 21.7617 120.438C21.6979 120.356 21.666 120.227 21.666 120.049C21.666 119.771 21.8073 119.632 22.0898 119.632L24.7217 119.687L27.7432 119.632C27.9665 119.632 28.0781 119.787 28.0781 120.097C28.0781 120.402 27.9391 120.555 27.6611 120.555H26.0342C25.9977 120.705 25.9795 121.368 25.9795 122.544V124.615C25.9795 124.72 25.9954 124.784 26.0273 124.807C26.0638 124.829 26.1322 124.841 26.2324 124.841H31.6943C31.9176 124.841 32.0475 124.823 32.084 124.786C32.1204 124.75 32.1387 124.627 32.1387 124.417V122.77C32.1387 121.557 32.1022 120.819 32.0293 120.555H30.457C30.2155 120.555 30.0947 120.402 30.0947 120.097C30.0947 119.787 30.2155 119.632 30.457 119.632L33.0889 119.687L35.9189 119.632C36.0511 119.632 36.1172 119.787 36.1172 120.097C36.1172 120.402 36.0055 120.555 35.7822 120.555H34.4629C34.4447 120.796 34.4355 122.316 34.4355 125.114C34.4355 127.912 34.4538 129.612 34.4902 130.214H36.0283C36.1969 130.214 36.2812 130.369 36.2812 130.679C36.2812 130.984 36.1969 131.137 36.0283 131.137L33.2324 131.082L30.3203 131.137C30.1152 131.137 30.0127 130.984 30.0127 130.679C30.0127 130.369 30.1243 130.214 30.3477 130.214H32.0566C32.1113 129.986 32.1387 129.193 32.1387 127.835V125.989C32.1387 125.812 32.1182 125.707 32.0771 125.675C32.0361 125.643 31.9085 125.627 31.6943 125.627H26.2051C26.1003 125.627 26.0365 125.636 26.0137 125.654C25.9909 125.668 25.9795 126.311 25.9795 127.582C25.9795 128.854 26.0365 129.731 26.1504 130.214H27.7432C27.93 130.214 28.0234 130.369 28.0234 130.679C28.0234 130.984 27.93 131.137 27.7432 131.137L24.8311 131.082ZM37.6689 125.641C37.6689 125.003 37.751 124.378 37.915 123.768C38.0837 123.157 38.348 122.58 38.708 122.038C39.068 121.496 39.5055 121.024 40.0205 120.623C41.1325 119.757 42.5794 119.324 44.3613 119.324C46.4167 119.324 48.0117 120.199 49.1465 121.949C49.8164 122.979 50.1514 124.121 50.1514 125.374C50.1514 127.475 49.4632 129.063 48.0869 130.139C47.0205 130.973 45.5439 131.39 43.6572 131.39C41.415 131.39 39.7471 130.599 38.6533 129.018C37.9971 128.065 37.6689 126.939 37.6689 125.641ZM42.0029 120.801C41.4333 121.257 40.9821 121.869 40.6494 122.64C40.3213 123.41 40.1572 124.283 40.1572 125.258C40.1572 126.233 40.3008 127.133 40.5879 127.958C40.8796 128.778 41.2965 129.421 41.8389 129.886C42.3857 130.351 42.9782 130.583 43.6162 130.583C44.2588 130.583 44.8057 130.483 45.2568 130.282C45.7126 130.077 46.0885 129.811 46.3848 129.482C46.681 129.15 46.9294 128.762 47.1299 128.32C47.5036 127.491 47.6904 126.643 47.6904 125.777C47.6904 124.907 47.5947 124.146 47.4033 123.494C47.2165 122.842 46.959 122.268 46.6309 121.771C46.3027 121.27 45.8949 120.869 45.4072 120.568C44.9242 120.263 44.3773 120.11 43.7666 120.11C43.1605 120.11 42.5726 120.34 42.0029 120.801ZM51.6689 125.641C51.6689 125.003 51.751 124.378 51.915 123.768C52.0837 123.157 52.348 122.58 52.708 122.038C53.068 121.496 53.5055 121.024 54.0205 120.623C55.1325 119.757 56.5794 119.324 58.3613 119.324C60.4167 119.324 62.0117 120.199 63.1465 121.949C63.8164 122.979 64.1514 124.121 64.1514 125.374C64.1514 127.475 63.4632 129.063 62.0869 130.139C61.0205 130.973 59.5439 131.39 57.6572 131.39C55.415 131.39 53.7471 130.599 52.6533 129.018C51.9971 128.065 51.6689 126.939 51.6689 125.641ZM56.0029 120.801C55.4333 121.257 54.9821 121.869 54.6494 122.64C54.3213 123.41 54.1572 124.283 54.1572 125.258C54.1572 126.233 54.3008 127.133 54.5879 127.958C54.8796 128.778 55.2965 129.421 55.8389 129.886C56.3857 130.351 56.9782 130.583 57.6162 130.583C58.2588 130.583 58.8057 130.483 59.2568 130.282C59.7126 130.077 60.0885 129.811 60.3848 129.482C60.681 129.15 60.9294 128.762 61.1299 128.32C61.5036 127.491 61.6904 126.643 61.6904 125.777C61.6904 124.907 61.5947 124.146 61.4033 123.494C61.2165 122.842 60.959 122.268 60.6309 121.771C60.3027 121.27 59.8949 120.869 59.4072 120.568C58.9242 120.263 58.3773 120.11 57.7666 120.11C57.1605 120.11 56.5726 120.34 56.0029 120.801ZM72.7783 122.852L72.833 121.676C72.833 121.53 72.6234 121.311 72.2041 121.02C71.402 120.468 70.6318 120.192 69.8936 120.192C69.4561 120.192 69.0755 120.304 68.752 120.527C68.1504 120.933 67.8496 121.437 67.8496 122.038C67.8496 122.635 68.1276 123.107 68.6836 123.453C69.1257 123.727 69.6497 123.964 70.2559 124.164C70.8665 124.36 71.3542 124.526 71.7188 124.663C72.0879 124.795 72.4365 124.959 72.7646 125.155C73.0973 125.347 73.3913 125.563 73.6465 125.805C74.207 126.333 74.4873 127.058 74.4873 127.979C74.4873 129.423 73.8242 130.417 72.498 130.959C71.2812 131.46 69.832 131.561 68.1504 131.26C66.8698 131.032 66.2295 130.795 66.2295 130.549C66.152 128.73 66.1133 127.746 66.1133 127.596C66.1133 127.441 66.2454 127.361 66.5098 127.356C66.7741 127.347 66.929 127.37 66.9746 127.425C67.0202 127.479 67.0498 127.607 67.0635 127.808L67.1523 129.182C67.1706 129.355 67.3483 129.537 67.6855 129.729C68.474 130.184 69.3604 130.412 70.3447 130.412C71.8942 130.412 72.6689 129.806 72.6689 128.594C72.6689 128.092 72.3864 127.689 71.8213 127.384C71.4385 127.174 70.9235 126.962 70.2764 126.748C69.6338 126.534 69.1257 126.358 68.752 126.222C68.3828 126.08 68.0296 125.91 67.6924 125.709C67.3551 125.504 67.0566 125.276 66.7969 125.025C66.2318 124.479 65.9492 123.809 65.9492 123.016C65.9492 122.223 66.1224 121.56 66.4688 121.026C66.8197 120.493 67.2868 120.081 67.8701 119.789C68.458 119.497 69.1439 119.352 69.9277 119.352C70.7572 119.352 71.6777 119.589 72.6895 120.062C72.7259 120.081 72.7555 120.099 72.7783 120.117C72.8057 120.131 72.8239 120.138 72.833 120.138C72.8695 120.028 72.8877 119.889 72.8877 119.721C72.8877 119.548 73.0518 119.461 73.3799 119.461C73.708 119.461 73.8721 119.575 73.8721 119.803L73.7012 122.852C73.7012 123.038 73.5462 123.132 73.2363 123.132C72.931 123.132 72.7783 123.038 72.7783 122.852ZM79.2793 131.082L76.1689 131.137C75.9639 131.137 75.8613 130.984 75.8613 130.679C75.8613 130.369 75.973 130.214 76.1963 130.214H78.0215C78.0397 130.159 78.0488 129.852 78.0488 129.291V122.209C78.0488 121.252 78.001 120.701 77.9053 120.555H76.3398C76.0938 120.555 75.9707 120.402 75.9707 120.097C75.9707 119.787 76.0459 119.632 76.1963 119.632C76.1963 119.632 77.1852 119.65 79.1631 119.687L85.4385 119.632C85.4749 119.559 85.4932 119.372 85.4932 119.071C85.4932 118.903 85.6436 118.818 85.9443 118.818H86.0264C86.3044 118.818 86.4434 118.912 86.4434 119.099L86.416 122.209C86.416 122.378 86.2565 122.462 85.9375 122.462C85.623 122.462 85.4658 122.378 85.4658 122.209V120.671C85.124 120.593 83.9391 120.555 81.9111 120.555H80.3115C80.2751 120.687 80.2568 121.145 80.2568 121.929V124.67C80.2568 124.893 80.3047 125.005 80.4004 125.005H81.3506C83.415 125.005 84.5635 124.959 84.7959 124.868V123.692C84.7959 123.542 84.944 123.467 85.2402 123.467C85.541 123.467 85.6914 123.533 85.6914 123.665L85.6641 125.285L85.6914 126.967C85.6914 127.099 85.541 127.165 85.2402 127.165C84.944 127.165 84.7959 127.072 84.7959 126.885V125.907C84.5954 125.812 83.8389 125.764 82.5264 125.764H80.4824C80.3822 125.764 80.3184 125.775 80.291 125.798C80.2682 125.821 80.2591 125.953 80.2637 126.194C80.2682 126.431 80.2728 126.789 80.2773 127.268C80.2865 127.742 80.2933 128.113 80.2979 128.382C80.3024 128.646 80.3092 128.91 80.3184 129.175C80.3366 129.681 80.3639 129.963 80.4004 130.022L86.252 129.961C86.3613 129.961 86.4251 129.945 86.4434 129.913C86.4616 129.881 86.4707 129.785 86.4707 129.626V128.033C86.4707 127.865 86.612 127.78 86.8945 127.78H87.0039C87.3047 127.78 87.4551 127.865 87.4551 128.033L87.4277 130.863C87.4277 131.046 87.2865 131.137 87.0039 131.137L79.2793 131.082ZM96.4785 131.082L94.5166 131.137C94.2751 131.137 94.1543 130.984 94.1543 130.679C94.1543 130.369 94.2842 130.214 94.5439 130.214H95.4121C95.6445 130.054 96.3395 128.587 97.4971 125.812C98.6546 123.032 99.2881 121.521 99.3975 121.279C99.5068 121.038 99.5866 120.887 99.6367 120.828C99.6868 120.764 99.7301 120.721 99.7666 120.698C99.8076 120.675 99.8509 120.637 99.8965 120.582C99.9967 120.445 100.106 120.181 100.225 119.789C100.348 119.393 100.45 119.146 100.532 119.051C100.619 118.955 100.717 118.907 100.826 118.907C100.94 118.907 101.015 118.916 101.052 118.935C101.093 118.953 101.129 118.982 101.161 119.023C101.198 119.064 101.227 119.108 101.25 119.153C101.277 119.194 101.307 119.256 101.339 119.338C101.371 119.42 101.398 119.493 101.421 119.557C101.735 120.473 102.398 122.202 103.41 124.745C104.786 128.213 105.545 130.036 105.687 130.214H106.527C106.714 130.214 106.808 130.369 106.808 130.679C106.808 130.984 106.687 131.137 106.445 131.137L104.23 131.082L101.4 131.137C101.236 131.137 101.154 130.984 101.154 130.679C101.154 130.369 101.248 130.214 101.435 130.214H103.055C102.918 129.731 102.713 129.102 102.439 128.327C102.171 127.548 102.009 127.083 101.954 126.933C101.904 126.778 101.872 126.693 101.858 126.68C101.845 126.666 101.797 126.659 101.715 126.659H98.5225C98.4085 126.659 98.1693 127.192 97.8047 128.259C97.4401 129.325 97.2305 129.977 97.1758 130.214H98.9668C99.1719 130.214 99.2744 130.369 99.2744 130.679C99.2744 130.984 99.1445 131.137 98.8848 131.137L96.4785 131.082ZM100.197 122.011C100.083 122.011 99.8008 122.649 99.3496 123.925C98.903 125.201 98.6842 125.85 98.6934 125.873C98.707 125.896 98.7435 125.907 98.8027 125.907H101.4C101.533 125.907 101.567 125.823 101.503 125.654C101.444 125.486 101.346 125.203 101.209 124.807C101.049 124.342 100.854 123.761 100.621 123.063C100.389 122.362 100.247 122.011 100.197 122.011ZM117.684 131.082L114.635 131.171C114.448 131.171 114.332 131.134 114.286 131.062C114.241 130.993 114.218 130.85 114.218 130.631C114.218 130.412 114.254 130.28 114.327 130.234C114.405 130.184 114.564 130.159 114.806 130.159H116.146C116.314 130.159 116.398 126.014 116.398 117.725V116.275C116.398 114.311 116.362 113.329 116.289 113.329L114.437 113.391C114.227 113.391 114.09 113.356 114.026 113.288C113.967 113.22 113.938 113.072 113.938 112.844C113.938 112.611 113.969 112.468 114.033 112.413C114.102 112.354 114.236 112.324 114.437 112.324L117.745 112.379L121.409 112.242C123.87 112.242 125.709 112.892 126.926 114.19C127.787 115.111 128.218 116.319 128.218 117.813C128.218 119.901 127.325 121.361 125.538 122.195C124.449 122.706 123.082 122.961 121.437 122.961L119.003 122.879C118.912 122.879 118.855 122.893 118.832 122.92C118.814 122.947 118.805 123.009 118.805 123.104V124.95C118.805 128.423 118.843 130.159 118.921 130.159H120.903C121.067 130.159 121.174 130.191 121.225 130.255C121.275 130.319 121.3 130.449 121.3 130.645C121.3 130.84 121.275 130.977 121.225 131.055C121.174 131.132 121.067 131.171 120.903 131.171L117.684 131.082ZM118.832 121.901C118.832 122.088 119.16 122.182 119.816 122.182C120.473 122.182 121.081 122.132 121.642 122.031C122.202 121.926 122.731 121.756 123.228 121.519C123.729 121.277 124.155 120.974 124.506 120.609C125.262 119.83 125.641 118.757 125.641 117.39C125.641 116.524 125.385 115.765 124.875 115.113C123.831 113.796 122.145 113.138 119.816 113.138C119.406 113.138 119.117 113.147 118.948 113.165C118.871 113.192 118.832 113.669 118.832 114.594V121.901ZM132.408 131.082L129.353 131.137C129.147 131.137 129.045 130.984 129.045 130.679C129.045 130.369 129.157 130.214 129.38 130.214H131.034C131.089 129.991 131.116 129.236 131.116 127.951V124.533C131.116 122.218 131.089 120.892 131.034 120.555H129.551C129.378 120.555 129.259 120.516 129.195 120.438C129.132 120.356 129.1 120.227 129.1 120.049C129.1 119.771 129.25 119.632 129.551 119.632L132.292 119.687L135.601 119.632C135.824 119.632 135.936 119.787 135.936 120.097C135.936 120.402 135.803 120.555 135.539 120.555H133.611C133.534 120.796 133.495 121.459 133.495 122.544V127.835C133.495 129.147 133.552 129.895 133.666 130.077C135.279 130.077 136.599 130.036 137.624 129.954C138.654 129.872 139.196 129.804 139.251 129.749C139.31 129.69 139.354 129.537 139.381 129.291L139.572 127.698C139.6 127.397 139.85 127.318 140.324 127.459C140.479 127.505 140.557 127.603 140.557 127.753C140.557 127.821 140.541 127.979 140.509 128.225C140.409 129.013 140.311 129.863 140.215 130.774C140.192 131.039 139.987 131.171 139.6 131.171L132.408 131.082ZM143.701 131.082L141.739 131.137C141.498 131.137 141.377 130.984 141.377 130.679C141.377 130.369 141.507 130.214 141.767 130.214H142.635C142.867 130.054 143.562 128.587 144.72 125.812C145.877 123.032 146.511 121.521 146.62 121.279C146.729 121.038 146.809 120.887 146.859 120.828C146.91 120.764 146.953 120.721 146.989 120.698C147.03 120.675 147.074 120.637 147.119 120.582C147.219 120.445 147.329 120.181 147.447 119.789C147.57 119.393 147.673 119.146 147.755 119.051C147.841 118.955 147.939 118.907 148.049 118.907C148.163 118.907 148.238 118.916 148.274 118.935C148.315 118.953 148.352 118.982 148.384 119.023C148.42 119.064 148.45 119.108 148.473 119.153C148.5 119.194 148.53 119.256 148.562 119.338C148.593 119.42 148.621 119.493 148.644 119.557C148.958 120.473 149.621 122.202 150.633 124.745C152.009 128.213 152.768 130.036 152.909 130.214H153.75C153.937 130.214 154.03 130.369 154.03 130.679C154.03 130.984 153.91 131.137 153.668 131.137L151.453 131.082L148.623 131.137C148.459 131.137 148.377 130.984 148.377 130.679C148.377 130.369 148.47 130.214 148.657 130.214H150.277C150.141 129.731 149.936 129.102 149.662 128.327C149.393 127.548 149.231 127.083 149.177 126.933C149.127 126.778 149.095 126.693 149.081 126.68C149.067 126.666 149.02 126.659 148.938 126.659H145.745C145.631 126.659 145.392 127.192 145.027 128.259C144.663 129.325 144.453 129.977 144.398 130.214H146.189C146.395 130.214 146.497 130.369 146.497 130.679C146.497 130.984 146.367 131.137 146.107 131.137L143.701 131.082ZM147.42 122.011C147.306 122.011 147.023 122.649 146.572 123.925C146.126 125.201 145.907 125.85 145.916 125.873C145.93 125.896 145.966 125.907 146.025 125.907H148.623C148.755 125.907 148.789 125.823 148.726 125.654C148.666 125.486 148.568 125.203 148.432 124.807C148.272 124.342 148.076 123.761 147.844 123.063C147.611 122.362 147.47 122.011 147.42 122.011ZM157.817 131.082L155.438 131.137C155.233 131.137 155.131 130.984 155.131 130.679C155.131 130.369 155.243 130.214 155.466 130.214H157.065C157.161 129.776 157.3 126.557 157.482 120.555H155.609C155.436 120.555 155.318 120.516 155.254 120.438C155.19 120.356 155.158 120.227 155.158 120.049C155.158 119.771 155.309 119.632 155.609 119.632L158.269 119.687H159.697C159.816 119.687 159.927 119.753 160.032 119.885L166.752 127.473C166.848 127.596 166.905 127.637 166.923 127.596C166.941 127.55 166.95 127.245 166.95 126.68C166.95 126.115 166.927 125.014 166.882 123.378C166.836 121.737 166.784 120.796 166.725 120.555H164.708C164.521 120.555 164.428 120.402 164.428 120.097C164.428 119.787 164.521 119.632 164.708 119.632L167.477 119.687L169.582 119.632C169.751 119.632 169.835 119.762 169.835 120.021V120.138C169.835 120.416 169.721 120.555 169.493 120.555H168.208C168.112 120.842 168.033 122.07 167.969 124.239C167.905 126.404 167.873 127.967 167.873 128.929L167.928 131.082C167.928 131.328 167.839 131.451 167.661 131.451C167.483 131.451 167.301 131.358 167.114 131.171L158.576 121.73L158.296 121.45V123.638C158.296 127.671 158.362 129.863 158.494 130.214H160.593C160.78 130.214 160.873 130.369 160.873 130.679C160.873 130.984 160.78 131.137 160.593 131.137L157.817 131.082Z" fill="#999999"/>
<rect x="273" y="0.5" width="94" height="94" rx="45" fill="#F9FAF9"/>
<rect x="273" y="0.5" width="94" height="94" rx="45" stroke="#7A7A7A"/>
<path d="M317.188 30.625H311.562C310.27 30.625 308.99 30.8796 307.795 31.3743C306.601 31.869 305.516 32.5941 304.602 33.5082C303.688 34.4222 302.963 35.5074 302.468 36.7017C301.973 37.896 301.719 39.1761 301.719 40.4688C301.719 41.7614 301.973 43.0415 302.468 44.2358C302.963 45.4301 303.688 46.5153 304.602 47.4293C305.516 48.3434 306.601 49.0685 307.795 49.5632C308.99 50.0579 310.27 50.3125 311.562 50.3125H317.188V58.75H304.531V64.375H317.188V70H322.812V64.375H328.438C331.048 64.375 333.552 63.3379 335.398 61.4918C337.244 59.6458 338.281 57.142 338.281 54.5312C338.281 51.9205 337.244 49.4167 335.398 47.5707C333.552 45.7246 331.048 44.6875 328.438 44.6875H322.812V36.25H335.469V30.625H322.812V25H317.188V30.625ZM322.812 50.3125H328.438C329.556 50.3125 330.629 50.757 331.421 51.5481C332.212 52.3393 332.656 53.4124 332.656 54.5312C332.656 55.6501 332.212 56.7232 331.421 57.5144C330.629 58.3055 329.556 58.75 328.438 58.75H322.812V50.3125ZM317.188 44.6875H311.562C311.008 44.6875 310.46 44.5784 309.948 44.3664C309.436 44.1544 308.971 43.8436 308.579 43.4519C308.188 43.0601 307.877 42.595 307.665 42.0832C307.453 41.5714 307.344 41.0228 307.344 40.4688C307.344 39.9147 307.453 39.3661 307.665 38.8543C307.877 38.3425 308.188 37.8774 308.579 37.4856C308.971 37.0939 309.436 36.7831 309.948 36.5711C310.46 36.3591 311.008 36.25 311.562 36.25H317.188V44.6875Z" fill="#7A7A7A"/>
<path d="M274.285 131.082L271.236 131.171C271.049 131.171 270.933 131.134 270.888 131.062C270.842 130.993 270.819 130.85 270.819 130.631C270.819 130.412 270.856 130.28 270.929 130.234C271.006 130.184 271.166 130.159 271.407 130.159H272.747C272.916 130.159 273 126.014 273 117.725V116.275C273 114.311 272.964 113.329 272.891 113.329L271.038 113.391C270.828 113.391 270.692 113.356 270.628 113.288C270.569 113.22 270.539 113.072 270.539 112.844C270.539 112.611 270.571 112.468 270.635 112.413C270.703 112.354 270.838 112.324 271.038 112.324L274.347 112.379L278.011 112.242C280.472 112.242 282.311 112.892 283.527 114.19C284.389 115.111 284.819 116.319 284.819 117.813C284.819 119.901 283.926 121.361 282.14 122.195C281.05 122.706 279.683 122.961 278.038 122.961L275.604 122.879C275.513 122.879 275.456 122.893 275.434 122.92C275.415 122.947 275.406 123.009 275.406 123.104V124.95C275.406 128.423 275.445 130.159 275.522 130.159H277.505C277.669 130.159 277.776 130.191 277.826 130.255C277.876 130.319 277.901 130.449 277.901 130.645C277.901 130.84 277.876 130.977 277.826 131.055C277.776 131.132 277.669 131.171 277.505 131.171L274.285 131.082ZM275.434 121.901C275.434 122.088 275.762 122.182 276.418 122.182C277.074 122.182 277.683 122.132 278.243 122.031C278.804 121.926 279.332 121.756 279.829 121.519C280.33 121.277 280.757 120.974 281.107 120.609C281.864 119.83 282.242 118.757 282.242 117.39C282.242 116.524 281.987 115.765 281.477 115.113C280.433 113.796 278.747 113.138 276.418 113.138C276.008 113.138 275.718 113.147 275.55 113.165C275.472 113.192 275.434 113.669 275.434 114.594V121.901ZM286.139 131.082L284.177 131.137C283.935 131.137 283.814 130.984 283.814 130.679C283.814 130.369 283.944 130.214 284.204 130.214H285.072C285.305 130.054 286 128.587 287.157 125.812C288.315 123.032 288.948 121.521 289.058 121.279C289.167 121.038 289.247 120.887 289.297 120.828C289.347 120.764 289.39 120.721 289.427 120.698C289.468 120.675 289.511 120.637 289.557 120.582C289.657 120.445 289.766 120.181 289.885 119.789C290.008 119.393 290.11 119.146 290.192 119.051C290.279 118.955 290.377 118.907 290.486 118.907C290.6 118.907 290.675 118.916 290.712 118.935C290.753 118.953 290.789 118.982 290.821 119.023C290.858 119.064 290.887 119.108 290.91 119.153C290.938 119.194 290.967 119.256 290.999 119.338C291.031 119.42 291.058 119.493 291.081 119.557C291.396 120.473 292.059 122.202 293.07 124.745C294.447 128.213 295.205 130.036 295.347 130.214H296.188C296.374 130.214 296.468 130.369 296.468 130.679C296.468 130.984 296.347 131.137 296.105 131.137L293.891 131.082L291.061 131.137C290.896 131.137 290.814 130.984 290.814 130.679C290.814 130.369 290.908 130.214 291.095 130.214H292.715C292.578 129.731 292.373 129.102 292.1 128.327C291.831 127.548 291.669 127.083 291.614 126.933C291.564 126.778 291.532 126.693 291.519 126.68C291.505 126.666 291.457 126.659 291.375 126.659H288.183C288.069 126.659 287.829 127.192 287.465 128.259C287.1 129.325 286.891 129.977 286.836 130.214H288.627C288.832 130.214 288.935 130.369 288.935 130.679C288.935 130.984 288.805 131.137 288.545 131.137L286.139 131.082ZM289.857 122.011C289.743 122.011 289.461 122.649 289.01 123.925C288.563 125.201 288.344 125.85 288.354 125.873C288.367 125.896 288.404 125.907 288.463 125.907H291.061C291.193 125.907 291.227 125.823 291.163 125.654C291.104 125.486 291.006 125.203 290.869 124.807C290.71 124.342 290.514 123.761 290.281 123.063C290.049 122.362 289.908 122.011 289.857 122.011ZM302.189 131.082L299.441 131.137C299.236 131.137 299.134 130.984 299.134 130.679C299.134 130.369 299.245 130.214 299.469 130.214H301.041C301.096 129.991 301.123 129.236 301.123 127.951V126.885C301.082 126.712 300.485 125.666 299.332 123.747C298.184 121.824 297.521 120.76 297.343 120.555H296.475C296.292 120.555 296.172 120.521 296.112 120.452C296.058 120.379 296.03 120.286 296.03 120.172C296.03 120.053 296.033 119.971 296.037 119.926C296.046 119.88 296.064 119.832 296.092 119.782C296.146 119.682 296.274 119.632 296.475 119.632L298.799 119.687L301.547 119.632C301.729 119.632 301.848 119.671 301.902 119.748C301.962 119.821 301.991 119.942 301.991 120.11C301.991 120.407 301.852 120.555 301.574 120.555H300.255C300.36 120.956 300.74 121.781 301.396 123.029C302.057 124.278 302.431 124.971 302.518 125.107C302.604 125.24 302.657 125.322 302.675 125.354C302.693 125.381 302.704 125.397 302.709 125.401C302.714 125.406 302.723 125.417 302.736 125.436C302.75 125.449 302.759 125.454 302.764 125.449C302.773 125.445 302.786 125.44 302.805 125.436C302.823 125.431 302.896 125.358 303.023 125.217C303.151 125.076 303.534 124.474 304.172 123.412C304.81 122.35 305.22 121.637 305.402 121.272C305.589 120.908 305.721 120.687 305.799 120.609C305.689 120.573 305.541 120.555 305.354 120.555H304.233C304.051 120.555 303.93 120.521 303.871 120.452C303.812 120.379 303.782 120.263 303.782 120.104C303.782 119.789 303.942 119.632 304.261 119.632L306.694 119.687L308.205 119.632C308.488 119.632 308.629 119.787 308.629 120.097C308.629 120.402 308.488 120.555 308.205 120.555C308.014 120.555 307.863 120.555 307.754 120.555C307.649 120.555 307.578 120.559 307.542 120.568C307.506 120.573 307.483 120.577 307.474 120.582C307.465 120.582 307.444 120.593 307.412 120.616C307.385 120.634 307.367 120.65 307.357 120.664C307.348 120.678 307.326 120.707 307.289 120.753C307.257 120.794 307.232 120.828 307.214 120.855C307.196 120.883 307.159 120.933 307.104 121.006C307.054 121.079 307.011 121.143 306.975 121.197L303.529 125.907C303.402 126.076 303.329 126.19 303.311 126.249C303.292 126.308 303.283 126.463 303.283 126.714V129.154C303.283 129.861 303.338 130.214 303.447 130.214H305.266C305.452 130.214 305.546 130.369 305.546 130.679C305.546 130.984 305.452 131.137 305.266 131.137L302.189 131.082ZM312.211 131.082L309.743 131.137C309.538 131.137 309.436 130.984 309.436 130.679C309.436 130.369 309.547 130.214 309.771 130.214H311.452C311.543 129.799 311.621 128.106 311.685 125.135C311.748 122.163 311.783 120.637 311.787 120.555H309.859C309.691 120.555 309.581 120.518 309.531 120.445C309.486 120.368 309.463 120.245 309.463 120.076C309.463 119.903 309.49 119.787 309.545 119.728C309.604 119.664 309.709 119.632 309.859 119.632L312.655 119.687H314.31C314.492 119.687 314.613 119.762 314.672 119.912C317.274 125.08 318.694 127.851 318.931 128.225C319.209 127.787 319.89 126.342 320.975 123.891C322.059 121.439 322.608 120.199 322.622 120.172C322.636 120.14 322.656 120.097 322.684 120.042C322.715 119.983 322.736 119.944 322.745 119.926C322.754 119.903 322.77 119.873 322.793 119.837C322.816 119.8 322.834 119.778 322.848 119.769C322.866 119.755 322.889 119.739 322.916 119.721C322.952 119.698 323.014 119.687 323.101 119.687H324.529L327.271 119.632C327.457 119.632 327.551 119.787 327.551 120.097C327.551 120.402 327.43 120.555 327.188 120.555H325.678C325.623 120.728 325.596 121.398 325.596 122.564C325.596 123.727 325.621 125.233 325.671 127.083C325.721 128.929 325.778 129.972 325.842 130.214H327.667C327.854 130.214 327.947 130.369 327.947 130.679C327.947 130.984 327.854 131.137 327.667 131.137L324.584 131.082L321.562 131.137C321.357 131.137 321.255 130.984 321.255 130.679C321.255 130.369 321.367 130.214 321.59 130.214H323.299C323.354 130.027 323.381 129.195 323.381 127.719C323.381 123.973 323.333 121.687 323.237 120.862C322.772 121.765 321.503 124.529 319.43 129.154C319.316 129.414 319.165 129.683 318.979 129.961C318.792 130.239 318.637 130.496 318.514 130.733C318.395 130.966 318.261 131.082 318.11 131.082C317.965 131.082 317.837 130.97 317.728 130.747L313.045 121.594C312.885 121.266 312.774 121.07 312.71 121.006C312.692 121.079 312.683 121.311 312.683 121.703C312.683 126.903 312.767 129.74 312.936 130.214H314.843C315.03 130.214 315.123 130.369 315.123 130.679C315.123 130.984 315.03 131.137 314.843 131.137L312.211 131.082ZM332.596 131.082L329.485 131.137C329.28 131.137 329.178 130.984 329.178 130.679C329.178 130.369 329.289 130.214 329.513 130.214H331.338C331.356 130.159 331.365 129.852 331.365 129.291V122.209C331.365 121.252 331.317 120.701 331.222 120.555H329.656C329.41 120.555 329.287 120.402 329.287 120.097C329.287 119.787 329.362 119.632 329.513 119.632C329.513 119.632 330.502 119.65 332.479 119.687L338.755 119.632C338.791 119.559 338.81 119.372 338.81 119.071C338.81 118.903 338.96 118.818 339.261 118.818H339.343C339.621 118.818 339.76 118.912 339.76 119.099L339.732 122.209C339.732 122.378 339.573 122.462 339.254 122.462C338.939 122.462 338.782 122.378 338.782 122.209V120.671C338.44 120.593 337.256 120.555 335.228 120.555H333.628C333.591 120.687 333.573 121.145 333.573 121.929V124.67C333.573 124.893 333.621 125.005 333.717 125.005H334.667C336.731 125.005 337.88 124.959 338.112 124.868V123.692C338.112 123.542 338.26 123.467 338.557 123.467C338.857 123.467 339.008 123.533 339.008 123.665L338.98 125.285L339.008 126.967C339.008 127.099 338.857 127.165 338.557 127.165C338.26 127.165 338.112 127.072 338.112 126.885V125.907C337.912 125.812 337.155 125.764 335.843 125.764H333.799C333.699 125.764 333.635 125.775 333.607 125.798C333.585 125.821 333.576 125.953 333.58 126.194C333.585 126.431 333.589 126.789 333.594 127.268C333.603 127.742 333.61 128.113 333.614 128.382C333.619 128.646 333.626 128.91 333.635 129.175C333.653 129.681 333.68 129.963 333.717 130.022L339.568 129.961C339.678 129.961 339.742 129.945 339.76 129.913C339.778 129.881 339.787 129.785 339.787 129.626V128.033C339.787 127.865 339.928 127.78 340.211 127.78H340.32C340.621 127.78 340.771 127.865 340.771 128.033L340.744 130.863C340.744 131.046 340.603 131.137 340.32 131.137L332.596 131.082ZM344.688 131.082L342.31 131.137C342.104 131.137 342.002 130.984 342.002 130.679C342.002 130.369 342.114 130.214 342.337 130.214H343.937C344.032 129.776 344.171 126.557 344.354 120.555H342.48C342.307 120.555 342.189 120.516 342.125 120.438C342.061 120.356 342.029 120.227 342.029 120.049C342.029 119.771 342.18 119.632 342.48 119.632L345.14 119.687H346.568C346.687 119.687 346.799 119.753 346.903 119.885L353.623 127.473C353.719 127.596 353.776 127.637 353.794 127.596C353.812 127.55 353.821 127.245 353.821 126.68C353.821 126.115 353.799 125.014 353.753 123.378C353.707 121.737 353.655 120.796 353.596 120.555H351.579C351.392 120.555 351.299 120.402 351.299 120.097C351.299 119.787 351.392 119.632 351.579 119.632L354.348 119.687L356.453 119.632C356.622 119.632 356.706 119.762 356.706 120.021V120.138C356.706 120.416 356.592 120.555 356.364 120.555H355.079C354.983 120.842 354.904 122.07 354.84 124.239C354.776 126.404 354.744 127.967 354.744 128.929L354.799 131.082C354.799 131.328 354.71 131.451 354.532 131.451C354.354 131.451 354.172 131.358 353.985 131.171L345.447 121.73L345.167 121.45V123.638C345.167 127.671 345.233 129.863 345.365 130.214H347.464C347.651 130.214 347.744 130.369 347.744 130.679C347.744 130.984 347.651 131.137 347.464 131.137L344.688 131.082ZM363.938 131.082L360.773 131.137C360.568 131.137 360.466 130.984 360.466 130.679C360.466 130.369 360.577 130.214 360.801 130.214H362.592C362.637 130.054 362.665 129.674 362.674 129.072C362.688 128.471 362.697 128.097 362.701 127.951L362.79 122.065C362.79 121.204 362.76 120.701 362.701 120.555H361.471C359.812 120.555 358.944 120.621 358.866 120.753L358.675 122.435C358.657 122.562 358.506 122.626 358.224 122.626C357.946 122.626 357.807 122.553 357.807 122.407C357.807 122.339 357.866 121.799 357.984 120.787C358.103 119.775 358.171 119.254 358.189 119.222C358.235 119.14 358.379 119.099 358.62 119.099C358.862 119.099 358.982 119.174 358.982 119.324V119.659C359.055 119.677 359.251 119.687 359.57 119.687H367.268C368.279 119.687 368.84 119.659 368.949 119.604C368.958 119.554 368.967 119.465 368.977 119.338C368.986 119.206 368.995 119.108 369.004 119.044C369.004 118.93 369.125 118.873 369.366 118.873H369.421C369.685 118.873 369.817 118.966 369.817 119.153L369.845 122.154C369.845 122.341 369.699 122.435 369.407 122.435C369.12 122.435 368.977 122.321 368.977 122.093V120.609C368.844 120.573 368.266 120.555 367.24 120.555H365.224C365.091 120.792 365.025 121.708 365.025 123.303V128.45C365.025 129.626 365.091 130.214 365.224 130.214H367.158C367.345 130.214 367.438 130.369 367.438 130.679C367.438 130.984 367.345 131.137 367.158 131.137L363.938 131.082Z" fill="#7A7A7A"/>
<rect x="496.729" y="0.5" width="97.5432" height="97.5421" rx="48.771" fill="#F9FAF9"/>
<rect x="496.729" y="0.5" width="97.5432" height="97.5421" rx="48.771" stroke="#7A7A7A"/>
<path fill-rule="evenodd" clip-rule="evenodd" d="M542.227 26.3539C543.046 25.5355 544.143 25.054 545.3 25.0043C546.457 24.9546 547.59 25.3403 548.477 26.0853L548.773 26.3562L553.171 30.752H559.389C560.557 30.7522 561.681 31.1936 562.537 31.9877C563.393 32.7819 563.917 33.8701 564.005 35.0344L564.019 35.3816V41.5992L568.417 45.9974C569.236 46.8169 569.718 47.9137 569.767 49.0713C569.817 50.2288 569.431 51.363 568.685 52.2497L568.414 52.5437L564.016 56.9418V63.1594C564.017 64.3274 563.576 65.4524 562.781 66.3088C561.987 67.1653 560.899 67.6899 559.734 67.7775L559.389 67.789H553.174L548.776 72.1872C547.956 73.0062 546.859 73.4881 545.702 73.5378C544.544 73.5876 543.41 73.2014 542.523 72.4557L542.229 72.1872L537.831 67.789H531.611C530.443 67.7894 529.318 67.3483 528.462 66.5541C527.605 65.7599 527.081 64.6713 526.993 63.5066L526.982 63.1594V56.9418L522.583 52.5437C521.764 51.7241 521.282 50.6273 521.233 49.4698C521.183 48.3122 521.569 47.1781 522.315 46.2914L522.583 45.9974L526.982 41.5992V35.3816C526.982 34.214 527.423 33.0896 528.217 32.2337C529.011 31.3777 530.1 30.8535 531.264 30.7659L531.611 30.752H537.829L542.227 26.3539Z" fill="#EEAD50"/>
<path fill-rule="evenodd" clip-rule="evenodd" d="M552.627 42.2865L542.803 52.1106L538.711 48.018C538.276 47.5839 537.687 47.3402 537.073 47.3404C536.459 47.3407 535.87 47.5848 535.436 48.0192C535.002 48.4535 534.759 49.0425 534.759 49.6565C534.759 50.2706 535.003 50.8594 535.437 51.2935L541.002 56.8583C541.239 57.0948 541.52 57.2825 541.829 57.4105C542.138 57.5386 542.469 57.6045 542.803 57.6045C543.138 57.6045 543.469 57.5386 543.778 57.4105C544.087 57.2825 544.368 57.0948 544.604 56.8583L555.9 45.5597C556.322 45.1231 556.555 44.5384 556.55 43.9314C556.545 43.3245 556.301 42.7439 555.872 42.3147C555.443 41.8855 554.862 41.6421 554.256 41.6368C553.649 41.6315 553.064 41.8649 552.627 42.2865Z" fill="#F9FAF9"/>
<path d="M481.324 120.905L481.413 119.114C481.413 118.832 481.19 118.499 480.743 118.116C480.301 117.733 479.907 117.433 479.561 117.214C478.758 116.708 477.899 116.455 476.983 116.455C476.072 116.455 475.27 116.79 474.577 117.46C473.889 118.13 473.545 118.978 473.545 120.003C473.545 121.024 473.982 121.862 474.857 122.519C475.423 122.942 476.386 123.407 477.749 123.913C479.116 124.419 480.071 124.813 480.613 125.096C481.771 125.711 482.571 126.465 483.013 127.358C483.327 127.996 483.484 128.694 483.484 129.45C483.484 130.207 483.364 130.883 483.122 131.48C482.885 132.077 482.562 132.592 482.151 133.025C481.741 133.454 481.265 133.823 480.723 134.133C479.643 134.743 478.444 135.049 477.127 135.049C475.477 135.049 473.973 134.812 472.615 134.338C471.882 134.083 471.508 133.857 471.494 133.661C471.485 133.461 471.453 133.016 471.398 132.328C471.28 130.742 471.221 129.869 471.221 129.71C471.221 129.55 471.223 129.452 471.228 129.416C471.232 129.38 471.248 129.339 471.275 129.293C471.316 129.211 471.437 129.17 471.638 129.17H471.774C471.966 129.17 472.1 129.204 472.178 129.272C472.255 129.336 472.299 129.457 472.308 129.635L472.479 132.267C472.497 132.499 472.798 132.75 473.381 133.019C473.969 133.287 474.646 133.511 475.411 133.688C476.181 133.866 476.863 133.955 477.455 133.955C478.048 133.955 478.622 133.814 479.178 133.531C479.734 133.244 480.178 132.845 480.511 132.335C480.848 131.825 481.017 131.307 481.017 130.783C481.017 130.259 480.93 129.815 480.757 129.45C480.588 129.086 480.381 128.778 480.135 128.527C479.889 128.277 479.551 128.031 479.123 127.789C478.531 127.447 477.861 127.131 477.113 126.839C476.37 126.543 475.896 126.354 475.691 126.271C475.486 126.185 475.197 126.057 474.823 125.889C474.454 125.72 474.167 125.574 473.962 125.451C473.757 125.328 473.499 125.166 473.189 124.966C472.884 124.761 472.645 124.567 472.472 124.385C472.299 124.198 472.107 123.975 471.897 123.715C471.692 123.451 471.537 123.182 471.433 122.908C471.177 122.243 471.05 121.609 471.05 121.008C471.05 120.402 471.13 119.857 471.289 119.374C471.449 118.891 471.667 118.456 471.945 118.068C472.223 117.676 472.554 117.319 472.937 116.995C473.324 116.672 473.741 116.4 474.188 116.182C475.131 115.73 476.015 115.505 476.84 115.505C477.669 115.505 478.385 115.582 478.986 115.737C479.588 115.892 480.11 116.127 480.552 116.441C480.998 116.751 481.274 116.906 481.379 116.906C481.429 116.906 481.463 116.767 481.481 116.489C481.504 116.211 481.541 116.047 481.591 115.997C481.646 115.947 481.796 115.922 482.042 115.922C482.288 115.922 482.445 115.947 482.514 115.997C482.582 116.047 482.616 116.182 482.616 116.4L482.445 120.851C482.445 121.047 482.418 121.176 482.363 121.24C482.309 121.299 482.163 121.329 481.926 121.329C481.689 121.329 481.529 121.297 481.447 121.233C481.365 121.17 481.324 121.06 481.324 120.905ZM496.596 123.229L498.865 123.175C499.089 123.175 499.2 123.33 499.2 123.64C499.2 123.945 499.059 124.098 498.776 124.098H497.826C497.771 124.271 497.744 124.934 497.744 126.087V134.263C497.744 134.404 497.694 134.518 497.594 134.604C497.493 134.696 497.336 134.741 497.122 134.741C496.912 134.741 496.728 134.639 496.568 134.434C496.464 134.283 496.318 134.062 496.131 133.771C495.949 133.479 495.846 133.326 495.823 133.312C495.805 133.299 495.739 133.324 495.625 133.388C495.516 133.451 495.411 133.511 495.311 133.565C495.215 133.616 495.078 133.686 494.9 133.777C494.727 133.868 494.554 133.951 494.381 134.023C494.212 134.096 494.019 134.176 493.8 134.263C493.581 134.349 493.358 134.427 493.13 134.495C492.902 134.559 492.667 134.62 492.426 134.68C491.296 134.939 490.19 134.93 489.11 134.652C487.784 134.315 487 133.547 486.759 132.349C486.69 132.011 486.656 131.633 486.656 131.214V128.076C486.656 125.788 486.627 124.462 486.567 124.098H485.453C485.28 124.098 485.161 124.059 485.098 123.981C485.034 123.899 485.002 123.77 485.002 123.592C485.002 123.314 485.152 123.175 485.453 123.175L487.75 123.229L490.771 123.175C490.995 123.175 491.106 123.33 491.106 123.64C491.106 123.945 490.967 124.098 490.689 124.098H488.98C488.921 124.285 488.892 124.948 488.892 126.087V130.817C488.892 132.221 489.491 133.132 490.689 133.552C491.027 133.67 491.4 133.729 491.811 133.729C492.225 133.729 492.61 133.702 492.966 133.647C493.321 133.593 493.654 133.499 493.964 133.367C494.278 133.23 494.545 133.057 494.764 132.848C495.219 132.406 495.465 131.768 495.502 130.934C495.52 130.674 495.529 129.546 495.529 127.55C495.529 125.554 495.484 124.403 495.393 124.098H493.882C493.709 124.098 493.59 124.059 493.526 123.981C493.463 123.899 493.431 123.77 493.431 123.592C493.431 123.314 493.581 123.175 493.882 123.175L496.596 123.229ZM503.644 134.625L500.875 134.68C500.647 134.68 500.533 134.527 500.533 134.222C500.533 133.912 500.647 133.757 500.875 133.757H502.55C502.627 133.629 502.666 133.153 502.666 132.328V127.905C502.666 125.631 502.609 124.362 502.495 124.098H500.813C500.554 124.098 500.424 123.95 500.424 123.653C500.424 123.353 500.545 123.202 500.786 123.202L503.671 123.229L506.699 123.175C507.77 123.175 508.522 123.243 508.955 123.38C509.393 123.517 509.737 123.658 509.987 123.804C510.243 123.945 510.452 124.111 510.616 124.303C510.99 124.745 511.177 125.312 511.177 126.005C511.177 127.258 510.427 128.135 508.928 128.637C508.691 128.714 508.561 128.755 508.538 128.76C508.515 128.764 508.499 128.769 508.49 128.773C510.655 129.229 511.737 130.209 511.737 131.713C511.737 133.673 510.058 134.652 506.699 134.652L503.644 134.625ZM504.99 129.225C504.913 129.225 504.874 129.261 504.874 129.334V130.934C504.874 132.597 504.931 133.538 505.045 133.757H506.33C507.251 133.757 507.9 133.65 508.278 133.436C508.661 133.217 508.932 133.014 509.092 132.827C509.379 132.485 509.522 132.087 509.522 131.631C509.522 130.027 508.431 129.225 506.248 129.225H504.99ZM506.474 128.466L507.342 128.493C507.857 128.493 508.26 128.277 508.552 127.844C508.843 127.406 508.989 126.843 508.989 126.155C508.989 125.467 508.718 124.925 508.176 124.528C507.638 124.132 506.92 123.934 506.022 123.934C505.635 123.934 505.273 123.952 504.936 123.988C504.895 124.193 504.874 124.781 504.874 125.752V128.438L505.072 128.466H506.474ZM520.638 126.395L520.692 125.219C520.692 125.073 520.483 124.854 520.063 124.562C519.261 124.011 518.491 123.735 517.753 123.735C517.315 123.735 516.935 123.847 516.611 124.07C516.01 124.476 515.709 124.979 515.709 125.581C515.709 126.178 515.987 126.65 516.543 126.996C516.985 127.27 517.509 127.507 518.115 127.707C518.726 127.903 519.214 128.069 519.578 128.206C519.947 128.338 520.296 128.502 520.624 128.698C520.957 128.89 521.251 129.106 521.506 129.348C522.066 129.876 522.347 130.601 522.347 131.521C522.347 132.966 521.684 133.96 520.357 134.502C519.141 135.003 517.691 135.104 516.01 134.803C514.729 134.575 514.089 134.338 514.089 134.092C514.011 132.273 513.973 131.289 513.973 131.139C513.973 130.984 514.105 130.904 514.369 130.899C514.633 130.89 514.788 130.913 514.834 130.968C514.88 131.022 514.909 131.15 514.923 131.351L515.012 132.725C515.03 132.898 515.208 133.08 515.545 133.271C516.333 133.727 517.22 133.955 518.204 133.955C519.754 133.955 520.528 133.349 520.528 132.137C520.528 131.635 520.246 131.232 519.681 130.927C519.298 130.717 518.783 130.505 518.136 130.291C517.493 130.077 516.985 129.901 516.611 129.765C516.242 129.623 515.889 129.452 515.552 129.252C515.215 129.047 514.916 128.819 514.656 128.568C514.091 128.021 513.809 127.352 513.809 126.559C513.809 125.766 513.982 125.103 514.328 124.569C514.679 124.036 515.146 123.624 515.729 123.332C516.317 123.04 517.003 122.895 517.787 122.895C518.617 122.895 519.537 123.132 520.549 123.605C520.585 123.624 520.615 123.642 520.638 123.66C520.665 123.674 520.683 123.681 520.692 123.681C520.729 123.571 520.747 123.432 520.747 123.264C520.747 123.09 520.911 123.004 521.239 123.004C521.567 123.004 521.731 123.118 521.731 123.346L521.561 126.395C521.561 126.581 521.406 126.675 521.096 126.675C520.79 126.675 520.638 126.581 520.638 126.395ZM534.419 127.796L534.501 125.889C534.501 125.834 534.403 125.711 534.207 125.52C534.016 125.324 533.799 125.137 533.558 124.959C533.316 124.781 533.036 124.606 532.717 124.433C532.029 124.059 531.295 123.872 530.516 123.872C529.736 123.872 529.05 124.084 528.458 124.508C527.866 124.927 527.394 125.52 527.043 126.285C526.697 127.051 526.523 127.844 526.523 128.664C526.523 129.48 526.628 130.195 526.838 130.811C527.048 131.426 527.337 131.964 527.706 132.424C528.508 133.426 529.549 133.928 530.83 133.928C531.723 133.928 532.496 133.807 533.147 133.565C533.804 133.324 534.291 133.044 534.61 132.725C534.67 132.396 534.704 131.991 534.713 131.508C534.727 131.02 534.74 130.678 534.754 130.482C534.772 130.296 534.934 130.202 535.239 130.202C535.549 130.202 535.704 130.314 535.704 130.537C535.704 131.417 535.668 132.378 535.595 133.422C535.586 133.563 535.305 133.764 534.754 134.023C534.207 134.279 533.519 134.513 532.689 134.728C531.86 134.942 531.088 135.049 530.372 135.049C529.657 135.049 528.964 134.967 528.294 134.803C527.629 134.643 527.022 134.395 526.476 134.058C525.929 133.716 525.462 133.299 525.074 132.807C524.268 131.768 523.864 130.405 523.864 128.719C523.864 127.976 524.035 127.249 524.377 126.538C524.723 125.827 525.181 125.205 525.751 124.672C526.321 124.139 526.997 123.71 527.781 123.387C528.57 123.059 529.381 122.895 530.215 122.895C531.732 122.895 533.198 123.323 534.61 124.18L534.645 123.961C534.69 123.697 534.854 123.564 535.137 123.564C535.424 123.564 535.567 123.678 535.567 123.906L535.451 127.796C535.451 127.983 535.278 128.076 534.932 128.076C534.59 128.076 534.419 127.983 534.419 127.796ZM540.332 134.625L537.673 134.68C537.45 134.68 537.338 134.527 537.338 134.222C537.338 133.912 537.45 133.757 537.673 133.757H539.129C539.206 133.629 539.245 133.153 539.245 132.328V127.905C539.245 125.631 539.188 124.362 539.074 124.098H537.618C537.358 124.098 537.229 123.95 537.229 123.653C537.229 123.353 537.349 123.202 537.591 123.202L540.25 123.229L543.36 123.175C545.712 123.175 547.136 123.792 547.633 125.027C547.751 125.319 547.811 125.645 547.811 126.005C547.811 127.317 546.936 128.286 545.186 128.91C545.149 128.919 545.09 128.94 545.008 128.972C547.204 129.537 548.326 130.833 548.371 132.861C548.389 133.354 548.417 133.627 548.453 133.682C548.494 133.732 548.533 133.757 548.569 133.757H549.465C549.583 133.757 549.659 133.796 549.69 133.873C549.727 133.951 549.745 134.09 549.745 134.29C549.745 134.55 549.622 134.68 549.376 134.68L546.3 134.625C546.149 134.625 546.074 134.552 546.074 134.406V133.367C546.074 132.178 546.006 131.424 545.869 131.104C545.732 130.785 545.587 130.521 545.432 130.312C545.277 130.102 545.09 129.94 544.871 129.826C544.352 129.553 543.698 129.416 542.909 129.416H541.569C541.492 129.416 541.453 129.455 541.453 129.532V130.934C541.453 132.597 541.51 133.538 541.624 133.757H543.299C543.486 133.757 543.579 133.912 543.579 134.222C543.579 134.527 543.486 134.68 543.299 134.68L540.332 134.625ZM541.453 128.773C541.544 128.792 541.61 128.801 541.651 128.801H543.552C544.536 128.801 545.167 128.304 545.445 127.311C545.527 127.033 545.568 126.723 545.568 126.381C545.568 126.035 545.486 125.704 545.322 125.39C545.158 125.071 544.935 124.806 544.652 124.597C544.064 124.155 543.354 123.934 542.52 123.934C542.182 123.934 541.845 123.952 541.508 123.988C541.471 124.171 541.453 124.758 541.453 125.752V128.773ZM554.072 134.625L551.044 134.68C550.839 134.68 550.736 134.527 550.736 134.222C550.736 133.912 550.848 133.757 551.071 133.757H552.78C552.835 133.534 552.862 132.779 552.862 131.494V128.076C552.862 125.761 552.835 124.435 552.78 124.098H551.242C551.074 124.098 550.964 124.061 550.914 123.988C550.868 123.911 550.846 123.779 550.846 123.592C550.846 123.314 550.996 123.175 551.297 123.175L553.956 123.229L557.012 123.175C557.217 123.175 557.319 123.33 557.319 123.64C557.319 123.945 557.187 124.098 556.923 124.098H555.275C555.216 124.285 555.187 124.948 555.187 126.087V131.521C555.187 132.629 555.234 133.374 555.33 133.757H557.148C557.335 133.757 557.429 133.912 557.429 134.222C557.429 134.527 557.335 134.68 557.148 134.68L554.072 134.625ZM562.084 134.625L559.172 134.68C558.949 134.68 558.837 134.527 558.837 134.222C558.837 133.912 558.949 133.757 559.172 133.757H560.854C560.926 133.634 560.963 133.158 560.963 132.328V127.905C560.963 125.631 560.906 124.362 560.792 124.098H559.056C558.796 124.098 558.666 123.95 558.666 123.653C558.666 123.353 558.787 123.202 559.028 123.202L561.968 123.229L564.996 123.175C567.38 123.175 568.879 123.811 569.494 125.082C569.686 125.469 569.781 125.918 569.781 126.429C569.781 126.939 569.69 127.395 569.508 127.796C569.326 128.192 569.082 128.516 568.776 128.767C568.476 129.017 568.109 129.222 567.676 129.382C566.901 129.669 565.969 129.812 564.88 129.812L563.26 129.758C563.182 129.758 563.144 129.794 563.144 129.867V130.934C563.144 132.583 563.21 133.524 563.342 133.757H565.386C565.573 133.757 565.666 133.912 565.666 134.222C565.666 134.527 565.573 134.68 565.386 134.68L562.084 134.625ZM563.144 128.944C563.144 129.054 563.21 129.108 563.342 129.108C565.602 129.108 566.956 128.63 567.402 127.673C567.535 127.395 567.601 127.071 567.601 126.702C567.601 125.845 567.311 125.189 566.732 124.733C566.154 124.273 565.352 124.043 564.326 124.043C563.843 124.043 563.469 124.061 563.205 124.098C563.164 124.262 563.144 124.813 563.144 125.752V128.944ZM577.157 134.625L573.992 134.68C573.787 134.68 573.685 134.527 573.685 134.222C573.685 133.912 573.796 133.757 574.02 133.757H575.811C575.856 133.597 575.883 133.217 575.893 132.615C575.906 132.014 575.915 131.64 575.92 131.494L576.009 125.608C576.009 124.747 575.979 124.243 575.92 124.098H574.689C573.031 124.098 572.162 124.164 572.085 124.296L571.894 125.978C571.875 126.105 571.725 126.169 571.442 126.169C571.164 126.169 571.025 126.096 571.025 125.95C571.025 125.882 571.085 125.342 571.203 124.33C571.322 123.318 571.39 122.797 571.408 122.765C571.454 122.683 571.597 122.642 571.839 122.642C572.08 122.642 572.201 122.717 572.201 122.867V123.202C572.274 123.22 572.47 123.229 572.789 123.229H580.486C581.498 123.229 582.059 123.202 582.168 123.147C582.177 123.097 582.186 123.008 582.195 122.881C582.204 122.749 582.214 122.651 582.223 122.587C582.223 122.473 582.343 122.416 582.585 122.416H582.64C582.904 122.416 583.036 122.509 583.036 122.696L583.063 125.697C583.063 125.884 582.918 125.978 582.626 125.978C582.339 125.978 582.195 125.864 582.195 125.636V124.152C582.063 124.116 581.484 124.098 580.459 124.098H578.442C578.31 124.335 578.244 125.251 578.244 126.846V131.993C578.244 133.169 578.31 133.757 578.442 133.757H580.377C580.564 133.757 580.657 133.912 580.657 134.222C580.657 134.527 580.564 134.68 580.377 134.68L577.157 134.625ZM587.486 134.625L584.458 134.68C584.253 134.68 584.15 134.527 584.15 134.222C584.15 133.912 584.262 133.757 584.485 133.757H586.194C586.249 133.534 586.276 132.779 586.276 131.494V128.076C586.276 125.761 586.249 124.435 586.194 124.098H584.656C584.488 124.098 584.378 124.061 584.328 123.988C584.283 123.911 584.26 123.779 584.26 123.592C584.26 123.314 584.41 123.175 584.711 123.175L587.37 123.229L590.426 123.175C590.631 123.175 590.733 123.33 590.733 123.64C590.733 123.945 590.601 124.098 590.337 124.098H588.689C588.63 124.285 588.601 124.948 588.601 126.087V131.521C588.601 132.629 588.648 133.374 588.744 133.757H590.562C590.749 133.757 590.843 133.912 590.843 134.222C590.843 134.527 590.749 134.68 590.562 134.68L587.486 134.625ZM592.224 129.184C592.224 128.546 592.306 127.921 592.47 127.311C592.638 126.7 592.903 126.123 593.263 125.581C593.623 125.039 594.06 124.567 594.575 124.166C595.687 123.3 597.134 122.867 598.916 122.867C600.971 122.867 602.566 123.742 603.701 125.492C604.371 126.522 604.706 127.664 604.706 128.917C604.706 131.018 604.018 132.606 602.642 133.682C601.575 134.516 600.099 134.933 598.212 134.933C595.97 134.933 594.302 134.142 593.208 132.561C592.552 131.608 592.224 130.482 592.224 129.184ZM596.558 124.344C595.988 124.799 595.537 125.412 595.204 126.183C594.876 126.953 594.712 127.826 594.712 128.801C594.712 129.776 594.855 130.676 595.143 131.501C595.434 132.321 595.851 132.964 596.394 133.429C596.94 133.894 597.533 134.126 598.171 134.126C598.813 134.126 599.36 134.026 599.812 133.825C600.267 133.62 600.643 133.354 600.939 133.025C601.236 132.693 601.484 132.305 601.685 131.863C602.058 131.034 602.245 130.186 602.245 129.32C602.245 128.45 602.149 127.689 601.958 127.037C601.771 126.385 601.514 125.811 601.186 125.314C600.857 124.813 600.45 124.412 599.962 124.111C599.479 123.806 598.932 123.653 598.321 123.653C597.715 123.653 597.127 123.883 596.558 124.344ZM608.767 134.625L606.388 134.68C606.183 134.68 606.08 134.527 606.08 134.222C606.08 133.912 606.192 133.757 606.415 133.757H608.015C608.11 133.319 608.249 130.1 608.432 124.098H606.559C606.385 124.098 606.267 124.059 606.203 123.981C606.139 123.899 606.107 123.77 606.107 123.592C606.107 123.314 606.258 123.175 606.559 123.175L609.218 123.229H610.646C610.765 123.229 610.877 123.296 610.981 123.428L617.701 131.016C617.797 131.139 617.854 131.18 617.872 131.139C617.89 131.093 617.899 130.788 617.899 130.223C617.899 129.658 617.877 128.557 617.831 126.921C617.785 125.28 617.733 124.339 617.674 124.098H615.657C615.47 124.098 615.377 123.945 615.377 123.64C615.377 123.33 615.47 123.175 615.657 123.175L618.426 123.229L620.531 123.175C620.7 123.175 620.784 123.305 620.784 123.564V123.681C620.784 123.959 620.67 124.098 620.442 124.098H619.157C619.062 124.385 618.982 125.613 618.918 127.782C618.854 129.947 618.822 131.51 618.822 132.472L618.877 134.625C618.877 134.871 618.788 134.994 618.61 134.994C618.433 134.994 618.25 134.901 618.063 134.714L609.525 125.273L609.245 124.993V127.181C609.245 131.214 609.311 133.406 609.443 133.757H611.542C611.729 133.757 611.822 133.912 611.822 134.222C611.822 134.527 611.729 134.68 611.542 134.68L608.767 134.625ZM497.566 165.329L497.874 165.356C498.152 165.379 498.291 165.482 498.291 165.664C498.291 165.938 498.143 167.225 497.847 169.526C497.824 169.686 497.598 169.907 497.17 170.189C496.746 170.467 496.213 170.748 495.57 171.03C493.975 171.728 492.335 172.076 490.648 172.076C488.898 172.076 487.276 171.725 485.781 171.023C484.286 170.317 483.079 169.23 482.158 167.763C481.21 166.254 480.736 164.388 480.736 162.164C480.736 158.678 482.094 156.007 484.811 154.152C486.501 152.995 488.504 152.416 490.819 152.416C492.834 152.416 494.693 153.031 496.397 154.262C496.571 154.389 496.68 154.471 496.726 154.508C496.776 154.544 496.824 154.574 496.869 154.597C496.919 154.615 496.953 154.613 496.972 154.59C496.994 154.562 497.006 154.51 497.006 154.433V153.681C497.006 153.503 497.035 153.384 497.095 153.325C497.159 153.261 497.3 153.229 497.519 153.229C497.742 153.229 497.904 153.259 498.004 153.318C498.104 153.378 498.154 153.498 498.154 153.681L498.038 159.225C498.038 159.398 498.002 159.507 497.929 159.553C497.86 159.594 497.708 159.614 497.471 159.614C497.238 159.614 497.083 159.591 497.006 159.546C496.928 159.496 496.89 159.398 496.89 159.252L497.006 156.675C497.006 156.465 496.707 156.121 496.11 155.643C495.518 155.164 494.973 154.777 494.477 154.48C493.287 153.779 492.002 153.428 490.621 153.428C488.229 153.428 486.362 154.599 485.022 156.941C484.179 158.418 483.758 160.177 483.758 162.219C483.758 163.376 483.958 164.484 484.359 165.541C484.765 166.598 485.31 167.514 485.993 168.289C486.677 169.059 487.493 169.674 488.44 170.135C489.393 170.59 490.277 170.818 491.093 170.818C491.909 170.818 492.606 170.764 493.185 170.654C493.768 170.545 494.267 170.41 494.682 170.251C495.096 170.091 495.47 169.925 495.803 169.752C496.459 169.401 496.794 169.148 496.808 168.993L497.17 165.746C497.215 165.468 497.348 165.329 497.566 165.329ZM500.8 166.184C500.8 165.546 500.882 164.921 501.046 164.311C501.215 163.7 501.479 163.123 501.839 162.581C502.199 162.039 502.636 161.567 503.151 161.166C504.263 160.3 505.71 159.867 507.492 159.867C509.548 159.867 511.143 160.742 512.277 162.492C512.947 163.522 513.282 164.664 513.282 165.917C513.282 168.018 512.594 169.606 511.218 170.682C510.151 171.516 508.675 171.933 506.788 171.933C504.546 171.933 502.878 171.142 501.784 169.561C501.128 168.608 500.8 167.482 500.8 166.184ZM505.134 161.344C504.564 161.799 504.113 162.412 503.78 163.183C503.452 163.953 503.288 164.826 503.288 165.801C503.288 166.776 503.432 167.676 503.719 168.501C504.01 169.321 504.427 169.964 504.97 170.429C505.517 170.894 506.109 171.126 506.747 171.126C507.39 171.126 507.937 171.026 508.388 170.825C508.843 170.62 509.219 170.354 509.516 170.025C509.812 169.693 510.06 169.305 510.261 168.863C510.634 168.034 510.821 167.186 510.821 166.32C510.821 165.45 510.726 164.689 510.534 164.037C510.347 163.385 510.09 162.811 509.762 162.314C509.434 161.813 509.026 161.412 508.538 161.111C508.055 160.806 507.508 160.653 506.897 160.653C506.291 160.653 505.703 160.883 505.134 161.344ZM517.432 171.625L514.964 171.68C514.759 171.68 514.656 171.527 514.656 171.222C514.656 170.912 514.768 170.757 514.991 170.757H516.673C516.764 170.342 516.841 168.649 516.905 165.678C516.969 162.706 517.003 161.18 517.008 161.098H515.08C514.911 161.098 514.802 161.061 514.752 160.988C514.706 160.911 514.684 160.788 514.684 160.619C514.684 160.446 514.711 160.33 514.766 160.271C514.825 160.207 514.93 160.175 515.08 160.175L517.876 160.229H519.53C519.713 160.229 519.833 160.305 519.893 160.455C522.495 165.623 523.914 168.394 524.151 168.768C524.429 168.33 525.111 166.885 526.195 164.434C527.28 161.982 527.829 160.742 527.843 160.715C527.856 160.683 527.877 160.64 527.904 160.585C527.936 160.526 527.957 160.487 527.966 160.469C527.975 160.446 527.991 160.416 528.014 160.38C528.036 160.343 528.055 160.321 528.068 160.312C528.087 160.298 528.109 160.282 528.137 160.264C528.173 160.241 528.235 160.229 528.321 160.229H529.75L532.491 160.175C532.678 160.175 532.771 160.33 532.771 160.64C532.771 160.945 532.651 161.098 532.409 161.098H530.898C530.844 161.271 530.816 161.941 530.816 163.107C530.816 164.27 530.841 165.776 530.892 167.626C530.942 169.472 530.999 170.515 531.062 170.757H532.888C533.075 170.757 533.168 170.912 533.168 171.222C533.168 171.527 533.075 171.68 532.888 171.68L529.805 171.625L526.783 171.68C526.578 171.68 526.476 171.527 526.476 171.222C526.476 170.912 526.587 170.757 526.811 170.757H528.52C528.574 170.57 528.602 169.738 528.602 168.262C528.602 164.516 528.554 162.23 528.458 161.405C527.993 162.308 526.724 165.072 524.65 169.697C524.536 169.957 524.386 170.226 524.199 170.504C524.012 170.782 523.857 171.039 523.734 171.276C523.616 171.509 523.481 171.625 523.331 171.625C523.185 171.625 523.058 171.513 522.948 171.29L518.266 162.137C518.106 161.809 517.994 161.613 517.931 161.549C517.912 161.622 517.903 161.854 517.903 162.246C517.903 167.446 517.988 170.283 518.156 170.757H520.063C520.25 170.757 520.344 170.912 520.344 171.222C520.344 171.527 520.25 171.68 520.063 171.68L517.432 171.625ZM537.816 171.625L534.904 171.68C534.681 171.68 534.569 171.527 534.569 171.222C534.569 170.912 534.681 170.757 534.904 170.757H536.586C536.659 170.634 536.695 170.158 536.695 169.328V164.905C536.695 162.631 536.638 161.362 536.524 161.098H534.788C534.528 161.098 534.398 160.95 534.398 160.653C534.398 160.353 534.519 160.202 534.761 160.202L537.7 160.229L540.729 160.175C543.112 160.175 544.611 160.811 545.227 162.082C545.418 162.469 545.514 162.918 545.514 163.429C545.514 163.939 545.423 164.395 545.24 164.796C545.058 165.192 544.814 165.516 544.509 165.767C544.208 166.017 543.841 166.222 543.408 166.382C542.633 166.669 541.701 166.812 540.612 166.812L538.992 166.758C538.915 166.758 538.876 166.794 538.876 166.867V167.934C538.876 169.583 538.942 170.524 539.074 170.757H541.118C541.305 170.757 541.398 170.912 541.398 171.222C541.398 171.527 541.305 171.68 541.118 171.68L537.816 171.625ZM538.876 165.944C538.876 166.054 538.942 166.108 539.074 166.108C541.335 166.108 542.688 165.63 543.135 164.673C543.267 164.395 543.333 164.071 543.333 163.702C543.333 162.845 543.044 162.189 542.465 161.733C541.886 161.273 541.084 161.043 540.059 161.043C539.576 161.043 539.202 161.061 538.938 161.098C538.896 161.262 538.876 161.813 538.876 162.752V165.944ZM550.258 171.625L547.202 171.68C546.997 171.68 546.895 171.527 546.895 171.222C546.895 170.912 547.006 170.757 547.229 170.757H548.884C548.938 170.534 548.966 169.779 548.966 168.494V165.076C548.966 162.761 548.938 161.435 548.884 161.098H547.4C547.227 161.098 547.109 161.059 547.045 160.981C546.981 160.899 546.949 160.77 546.949 160.592C546.949 160.314 547.1 160.175 547.4 160.175L550.142 160.229L553.45 160.175C553.674 160.175 553.785 160.33 553.785 160.64C553.785 160.945 553.653 161.098 553.389 161.098H551.461C551.383 161.339 551.345 162.002 551.345 163.087V168.378C551.345 169.69 551.402 170.438 551.516 170.62C553.129 170.62 554.448 170.579 555.474 170.497C556.504 170.415 557.046 170.347 557.101 170.292C557.16 170.233 557.203 170.08 557.23 169.834L557.422 168.241C557.449 167.94 557.7 167.861 558.174 168.002C558.329 168.048 558.406 168.146 558.406 168.296C558.406 168.364 558.39 168.521 558.358 168.768C558.258 169.556 558.16 170.406 558.064 171.317C558.042 171.582 557.837 171.714 557.449 171.714L550.258 171.625ZM562.781 171.625L559.671 171.68C559.466 171.68 559.363 171.527 559.363 171.222C559.363 170.912 559.475 170.757 559.698 170.757H561.523C561.542 170.702 561.551 170.395 561.551 169.834V162.752C561.551 161.795 561.503 161.243 561.407 161.098H559.842C559.596 161.098 559.473 160.945 559.473 160.64C559.473 160.33 559.548 160.175 559.698 160.175C559.698 160.175 560.687 160.193 562.665 160.229L568.94 160.175C568.977 160.102 568.995 159.915 568.995 159.614C568.995 159.446 569.146 159.361 569.446 159.361H569.528C569.806 159.361 569.945 159.455 569.945 159.642L569.918 162.752C569.918 162.921 569.758 163.005 569.439 163.005C569.125 163.005 568.968 162.921 568.968 162.752V161.214C568.626 161.136 567.441 161.098 565.413 161.098H563.813C563.777 161.23 563.759 161.688 563.759 162.472V165.213C563.759 165.436 563.807 165.548 563.902 165.548H564.853C566.917 165.548 568.065 165.502 568.298 165.411V164.235C568.298 164.085 568.446 164.01 568.742 164.01C569.043 164.01 569.193 164.076 569.193 164.208L569.166 165.828L569.193 167.51C569.193 167.642 569.043 167.708 568.742 167.708C568.446 167.708 568.298 167.615 568.298 167.428V166.45C568.097 166.354 567.341 166.307 566.028 166.307H563.984C563.884 166.307 563.82 166.318 563.793 166.341C563.77 166.364 563.761 166.496 563.766 166.737C563.77 166.974 563.775 167.332 563.779 167.811C563.788 168.285 563.795 168.656 563.8 168.925C563.804 169.189 563.811 169.453 563.82 169.718C563.839 170.224 563.866 170.506 563.902 170.565L569.754 170.504C569.863 170.504 569.927 170.488 569.945 170.456C569.964 170.424 569.973 170.328 569.973 170.169V168.576C569.973 168.408 570.114 168.323 570.396 168.323H570.506C570.807 168.323 570.957 168.408 570.957 168.576L570.93 171.406C570.93 171.589 570.788 171.68 570.506 171.68L562.781 171.625ZM578.183 171.625L575.018 171.68C574.812 171.68 574.71 171.527 574.71 171.222C574.71 170.912 574.822 170.757 575.045 170.757H576.836C576.882 170.597 576.909 170.217 576.918 169.615C576.932 169.014 576.941 168.64 576.945 168.494L577.034 162.608C577.034 161.747 577.005 161.243 576.945 161.098H575.715C574.056 161.098 573.188 161.164 573.11 161.296L572.919 162.978C572.901 163.105 572.75 163.169 572.468 163.169C572.19 163.169 572.051 163.096 572.051 162.95C572.051 162.882 572.11 162.342 572.229 161.33C572.347 160.318 572.415 159.797 572.434 159.765C572.479 159.683 572.623 159.642 572.864 159.642C573.106 159.642 573.227 159.717 573.227 159.867V160.202C573.299 160.22 573.495 160.229 573.814 160.229H581.512C582.523 160.229 583.084 160.202 583.193 160.147C583.202 160.097 583.212 160.008 583.221 159.881C583.23 159.749 583.239 159.651 583.248 159.587C583.248 159.473 583.369 159.416 583.61 159.416H583.665C583.929 159.416 584.062 159.509 584.062 159.696L584.089 162.697C584.089 162.884 583.943 162.978 583.651 162.978C583.364 162.978 583.221 162.864 583.221 162.636V161.152C583.089 161.116 582.51 161.098 581.484 161.098H579.468C579.336 161.335 579.27 162.251 579.27 163.846V168.993C579.27 170.169 579.336 170.757 579.468 170.757H581.402C581.589 170.757 581.683 170.912 581.683 171.222C581.683 171.527 581.589 171.68 581.402 171.68L578.183 171.625ZM588.594 171.625L585.483 171.68C585.278 171.68 585.176 171.527 585.176 171.222C585.176 170.912 585.287 170.757 585.511 170.757H587.336C587.354 170.702 587.363 170.395 587.363 169.834V162.752C587.363 161.795 587.315 161.243 587.22 161.098H585.654C585.408 161.098 585.285 160.945 585.285 160.64C585.285 160.33 585.36 160.175 585.511 160.175C585.511 160.175 586.5 160.193 588.478 160.229L594.753 160.175C594.789 160.102 594.808 159.915 594.808 159.614C594.808 159.446 594.958 159.361 595.259 159.361H595.341C595.619 159.361 595.758 159.455 595.758 159.642L595.73 162.752C595.73 162.921 595.571 163.005 595.252 163.005C594.938 163.005 594.78 162.921 594.78 162.752V161.214C594.438 161.136 593.254 161.098 591.226 161.098H589.626C589.59 161.23 589.571 161.688 589.571 162.472V165.213C589.571 165.436 589.619 165.548 589.715 165.548H590.665C592.729 165.548 593.878 165.502 594.11 165.411V164.235C594.11 164.085 594.258 164.01 594.555 164.01C594.855 164.01 595.006 164.076 595.006 164.208L594.979 165.828L595.006 167.51C595.006 167.642 594.855 167.708 594.555 167.708C594.258 167.708 594.11 167.615 594.11 167.428V166.45C593.91 166.354 593.153 166.307 591.841 166.307H589.797C589.697 166.307 589.633 166.318 589.605 166.341C589.583 166.364 589.574 166.496 589.578 166.737C589.583 166.974 589.587 167.332 589.592 167.811C589.601 168.285 589.608 168.656 589.612 168.925C589.617 169.189 589.624 169.453 589.633 169.718C589.651 170.224 589.678 170.506 589.715 170.565L595.566 170.504C595.676 170.504 595.74 170.488 595.758 170.456C595.776 170.424 595.785 170.328 595.785 170.169V168.576C595.785 168.408 595.926 168.323 596.209 168.323H596.318C596.619 168.323 596.77 168.408 596.77 168.576L596.742 171.406C596.742 171.589 596.601 171.68 596.318 171.68L588.594 171.625ZM598.335 171.68C598.112 171.68 598 171.527 598 171.222C598 170.912 598.084 170.757 598.253 170.757H599.907C600.017 170.242 600.071 167.321 600.071 161.993V161.098H598.479C598.273 161.098 598.171 160.945 598.171 160.64C598.171 160.33 598.273 160.175 598.479 160.175L601.192 160.229L604.077 160.147C605.968 160.147 607.484 160.642 608.623 161.631C609.812 162.661 610.407 164.153 610.407 166.108C610.407 168.25 609.532 169.82 607.782 170.818C606.775 171.393 605.633 171.68 604.357 171.68L601.056 171.625L598.335 171.68ZM602.286 169.779C602.286 170.34 602.304 170.675 602.341 170.784C602.482 170.807 602.806 170.818 603.312 170.818C603.817 170.818 604.294 170.766 604.74 170.661C605.187 170.556 605.57 170.415 605.889 170.237C606.212 170.055 606.497 169.836 606.743 169.581C606.994 169.326 607.197 169.059 607.352 168.781C607.507 168.499 607.634 168.193 607.734 167.865C607.908 167.282 607.994 166.687 607.994 166.081C607.994 165.475 607.942 164.933 607.837 164.454C607.732 163.971 607.557 163.513 607.311 163.08C607.069 162.647 606.764 162.276 606.395 161.966C605.588 161.296 604.478 160.961 603.065 160.961C602.769 160.961 602.555 160.97 602.423 160.988C602.332 161.38 602.286 162.005 602.286 162.861V169.779Z" fill="#EEAD50"/>
<line x1="163" y1="49.5" x2="237" y2="49.5" stroke="black"/>
<line x1="393" y1="49.5" x2="467" y2="49.5" stroke="black"/>
</svg>
